<svg width="47" height="40" viewBox="0 0 47 40" fill="none" xmlns="http://www.w3.org/2000/svg">
<g opacity="0.6">
<path d="M0.166626 1.375C0.166626 0.822716 0.614341 0.375 1.16663 0.375H18.1666C18.7189 0.375 19.1666 0.822715 19.1666 1.375V37.1384C19.1666 38.0028 18.144 38.46 17.4998 37.8837L0.499831 22.6731C0.287808 22.4834 0.166626 22.2124 0.166626 21.9279V1.375Z" fill="#D9D9D9"/>
<path d="M27.1666 1.375C27.1666 0.822716 27.6143 0.375 28.1666 0.375H45.1666C45.7189 0.375 46.1666 0.822715 46.1666 1.375V37.1384C46.1666 38.0028 45.144 38.46 44.4998 37.8837L27.4998 22.6731C27.2878 22.4834 27.1666 22.2124 27.1666 21.9279V1.375Z" fill="#D9D9D9"/>
</g>
</svg>
