<svg width="25" height="24" viewBox="0 0 25 24" fill="none" xmlns="http://www.w3.org/2000/svg">
<g clip-path="url(#clip0_2006_203)">
<path d="M16.175 13C16.925 13 17.585 12.59 17.925 11.97L21.505 5.48C21.875 4.82 21.395 4 20.635 4H5.835L4.895 2H1.625V4H3.625L7.225 11.59L5.875 14.03C5.145 15.37 6.105 17 7.625 17H19.625V15H7.625L8.725 13H16.175ZM6.785 6H18.935L16.175 11H9.155L6.785 6ZM7.625 18C6.525 18 5.635 18.9 5.635 20C5.635 21.1 6.525 22 7.625 22C8.725 22 9.625 21.1 9.625 20C9.625 18.9 8.725 18 7.625 18ZM17.625 18C16.525 18 15.635 18.9 15.635 20C15.635 21.1 16.525 22 17.625 22C18.725 22 19.625 21.1 19.625 20C19.625 18.9 18.725 18 17.625 18Z" fill="white"/>
</g>
<defs>
<clipPath id="clip0_2006_203">
<rect width="24" height="24" fill="white" transform="translate(0.625)"/>
</clipPath>
</defs>
</svg>
